<svg width="265" height="195" viewBox="0 0 265 195" fill="none" xmlns="http://www.w3.org/2000/svg">
<path d="M23.4 38.4C23.4 46.2 25.3 53 29.1 58.8C32.9 64.6 37.5 69.5 42.9 73.5C48.3 77.3 55.9 82.2 65.7 88.2C76.1 94.4 84.2 99.6 90 103.8C95.8 108 100.7 113.4 104.7 120C108.9 126.4 111 134.1 111 143.1C111 152.7 108.6 161.4 103.8 169.2C99 177 91.9 183.2 82.5 187.8C73.3 192.2 62.2 194.4 49.2 194.4C33.8 194.4 19.7 190.9 6.9 183.9C5.9 183.3 5.2 182.6 4.8 181.8C4.6 181 4.4 179.8 4.2 178.2L0.300003 137.4C0.100002 136.6 0.500002 136.1 1.5 135.9C2.7 135.7 3.4 136 3.6 136.8C6.6 151 12.5 163.4 21.3 174C30.1 184.4 41.7 189.6 56.1 189.6C66.1 189.6 74.5 186.9 81.3 181.5C88.3 175.9 91.8 167.1 91.8 155.1C91.8 146.1 89.8 138.3 85.8 131.7C81.8 125.1 76.9 119.7 71.1 115.5C65.5 111.1 57.8 106 48 100.2C38.4 94.4 30.8 89.4 25.2 85.2C19.8 81 15.2 75.7 11.4 69.3C7.6 62.9 5.7 55.4 5.7 46.8C5.7 36.8 8.3 28.3 13.5 21.3C18.9 14.1 25.8 8.80001 34.2 5.40001C42.8 1.80001 51.9 7.15256e-06 61.5 7.15256e-06C73.3 7.15256e-06 85 2.40001 96.6 7.2C99.6 8.2 101.1 9.9 101.1 12.3L103.2 46.5C103.2 47.5 102.6 48 101.4 48C100.4 48 99.8 47.6 99.6 46.8C98.2 36.4 94 26.8 87 18C80 9 69.9 4.5 56.7 4.5C45.5 4.5 37.1 7.80001 31.5 14.4C26.1 20.8 23.4 28.8 23.4 38.4Z" fill="black"/>
<path d="M139.863 190.8C139.463 190.8 139.263 190.2 139.263 189C139.263 187.8 139.463 187.2 139.863 187.2C147.463 187.2 153.063 186.7 156.663 185.7C160.263 184.7 162.663 182.8 163.863 180C165.263 177 165.963 172.5 165.963 166.5V27.6C165.963 21.6 165.263 17.2 163.863 14.4C162.663 11.6 160.263 9.7 156.663 8.7C153.263 7.50001 147.763 6.90001 140.163 6.90001C139.763 6.90001 139.563 6.30001 139.563 5.10001C139.563 3.90002 139.763 3.30002 140.163 3.30002H260.763C262.563 3.30002 263.463 4.20001 263.463 6L264.063 42.9C264.063 43.5 263.463 43.9 262.263 44.1C261.263 44.1 260.763 43.8 260.763 43.2C260.163 32.6 256.963 24.4 251.163 18.6C245.363 12.6 237.663 9.60001 228.063 9.60001H209.763C202.963 9.60001 197.863 10.1 194.463 11.1C191.063 12.1 188.663 13.9 187.263 16.5C185.863 19.1 185.163 22.9 185.163 27.9V165.3C185.163 171.7 185.963 176.4 187.563 179.4C189.363 182.2 192.763 184.2 197.763 185.4C202.963 186.6 210.963 187.2 221.763 187.2C222.363 187.2 222.663 187.8 222.663 189C222.663 190.2 222.363 190.8 221.763 190.8C213.563 190.8 207.163 190.7 202.563 190.5L175.563 190.2L155.163 190.5C151.563 190.7 146.463 190.8 139.863 190.8ZM245.463 124.5C245.463 115.7 243.063 109.4 238.263 105.6C233.663 101.8 225.863 99.9 214.863 99.9H176.163V93.6H215.763C226.363 93.6 233.863 92 238.263 88.8C242.863 85.4 245.163 80 245.163 72.6C245.163 72.2 245.763 72 246.963 72C248.163 72 248.763 72.2 248.763 72.6L248.463 96.9C248.463 102.7 248.563 107.1 248.763 110.1L249.063 124.5C249.063 124.9 248.463 125.1 247.263 125.1C246.063 125.1 245.463 124.9 245.463 124.5Z" fill="#CD5700"/>
</svg>
