<svg xmlns="http://www.w3.org/2000/svg" aria-hidden="true" style="position:absolute;width:0;height:0;overflow:hidden">
  <defs>
    <symbol id="facebook" viewBox="0 0 32 32">
      <path d="M32 16.04C32 7.186 24.832 0 16 0S0 7.186 0 16.04c0 7.763 5.504 14.228 12.8 15.719V20.852H9.6V16.04h3.2v-4.01c0-3.096 2.512-5.614 5.6-5.614h4v4.812h-3.2c-.88 0-1.6.722-1.6 1.604v3.208h4.8v4.812h-4.8V32c8.08-.802 14.4-7.635 14.4-15.96z"/>
    </symbol>
    <symbol id="instagram" viewBox="0 0 32 32">
      <path d="M23.111 0A8.888 8.888 0 0 1 32 8.888V23.11a8.89 8.89 0 0 1-8.889 8.889H8.889A8.89 8.89 0 0 1 .001 23.11V8.888A8.888 8.888 0 0 1 8.889 0h14.222zm0 3.556H8.889a5.332 5.332 0 0 0-5.333 5.333v14.222a5.334 5.334 0 0 0 5.333 5.333h14.222a5.334 5.334 0 0 0 5.333-5.333V8.889a5.332 5.332 0 0 0-5.333-5.333zM16 8.889A7.108 7.108 0 0 1 23.111 16 7.108 7.108 0 0 1 16 23.111 7.108 7.108 0 0 1 8.889 16 7.108 7.108 0 0 1 16 8.889zm0 3.555a3.553 3.553 0 0 0-2.514 6.069 3.553 3.553 0 0 0 5.028 0 3.553 3.553 0 0 0 0-5.028A3.553 3.553 0 0 0 16 12.444zm8-6.222A1.776 1.776 0 0 1 25.778 8 1.776 1.776 0 0 1 24 9.778 1.776 1.776 0 0 1 22.222 8 1.776 1.776 0 0 1 24 6.222z"/>
    </symbol>
    <symbol id="telegram" viewBox="0 0 32 32">
      <path d="M16 0C7.168 0 0 7.168 0 16s7.168 16 16 16 16-7.168 16-16S24.832 0 16 0zm7.424 10.88c-.24 2.528-1.28 8.672-1.808 11.504-.224 1.2-.672 1.6-1.088 1.648-.928.08-1.632-.608-2.528-1.2-1.408-.928-2.208-1.504-3.568-2.4-1.584-1.04-.56-1.616.352-2.544.24-.24 4.336-3.968 4.416-4.304a.32.32 0 0 0-.08-.288c-.096-.08-.224-.048-.336-.032-.144.032-2.384 1.52-6.752 4.464-.64.432-1.216.656-1.728.64-.576-.016-1.664-.32-2.48-.592-1.008-.32-1.792-.496-1.728-1.056.032-.288.432-.576 1.184-.88 4.672-2.032 7.776-3.376 9.328-4.016 4.448-1.856 5.36-2.176 5.968-2.176.128 0 .432.032.624.192.16.128.208.304.224.432-.016.096.016.384 0 .608z"/>
    </symbol>
    <symbol id="arrow" viewBox="0 0 32 32">
      <path d="M29 16a.997.997 0 0 1-1 1H6.414l8.293 8.293a1.002 1.002 0 0 1-.012 1.402 1 1 0 0 1-1.402.012l-10-10a1.003 1.003 0 0 1 0-1.414l10-10a1.002 1.002 0 0 1 1.402.012 1 1 0 0 1 .012 1.401l-8.293 8.293H28a.997.997 0 0 1 1 1z"/>
    </symbol>
    <symbol id="burger" viewBox="0 0 48 32">
      <path d="M2.667 32c-.756 0-1.388-.256-1.899-.768S.002 30.087 0 29.333c-.002-.754.254-1.387.768-1.899s1.147-.768 1.899-.768h42.667c.755 0 1.389.256 1.901.768s.767 1.145.765 1.899c-.002.754-.258 1.387-.768 1.901s-1.143.769-1.899.765H2.666zm0-13.333c-.756 0-1.388-.256-1.899-.768S.002 16.754 0 16c-.002-.754.254-1.387.768-1.899s1.147-.768 1.899-.768h42.667c.755 0 1.389.256 1.901.768S48.002 15.246 48 16c-.002.754-.258 1.388-.768 1.901s-1.143.769-1.899.765H2.666zm0-13.334c-.756 0-1.388-.256-1.899-.768S.002 3.42 0 2.666C-.002 1.912.254 1.279.768.767s1.147-.768 1.899-.768h42.667c.755 0 1.389.256 1.901.768s.767 1.145.765 1.899c-.002.754-.258 1.388-.768 1.901s-1.143.769-1.899.765H2.666z"/>
    </symbol>
    <symbol id="close" viewBox="0 0 33 32">
      <path d="M6.585 6.1a2 2 0 0 1 2.828 0l7.072 7.072L23.557 6.1a1.998 1.998 0 0 1 2.804.025 2.001 2.001 0 0 1 .025 2.804l-7.072 7.072 7.072 7.072a1.998 1.998 0 0 1-.025 2.804 2.001 2.001 0 0 1-2.804.025l-7.072-7.072-7.072 7.072a1.998 1.998 0 0 1-2.804-.025 2.001 2.001 0 0 1-.025-2.804l7.072-7.072-7.072-7.072a2 2 0 0 1 0-2.828z"/>
    </symbol>
  </defs>
</svg>